<?xml version="1.0" encoding="UTF-8"?> <!-- Generator: Adobe Illustrator 23.0.2, SVG Export Plug-In . SVG Version: 6.00 Build 0) --> <svg xmlns="http://www.w3.org/2000/svg" xmlns:xlink="http://www.w3.org/1999/xlink" version="1.1" x="0px" y="0px" viewBox="0 0 750 500" style="enable-background:new 0 0 750 500;" xml:space="preserve"> <style type="text/css"> .st0{fill:#EBEBEB;} .st1{fill:#FAFAFA;} .st2{fill:#F5F5F5;} .st3{fill:#E0E0E0;} .st4{display:none;} .st5{display:inline;} .st6{fill:#263238;} .st7{fill:#455A64;} .st8{fill:#DD356E;} .st9{opacity:0.2;} .st10{fill:#FFBE9D;} .st11{fill:#EB996E;} </style> <g id="Background_Complete"> <g> <g> <rect x="53.2" y="75.5" class="st0" width="119.6" height="214.8"></rect> </g> <g> <rect x="58" y="81.7" class="st1" width="108.8" height="202.2"></rect> </g> <g> <polygon class="st2" points="166.8,84.1 58,222.5 58,81.7 166.8,81.7 "></polygon> </g> <g> <rect x="58" y="139.9" class="st0" width="111.2" height="2.2"></rect> </g> <g> <rect x="58" y="188" class="st0" width="111.2" height="2.2"></rect> </g> <g> <rect x="58" y="236.2" class="st0" width="111.2" height="2.2"></rect> </g> <g> <rect x="38" y="212.5" transform="matrix(6.123234e-17 -1 1 6.123234e-17 -102.9109 327.6447)" class="st0" width="148.7" height="5.5"></rect> </g> <g> <rect x="78.9" y="81.7" class="st0" width="2.5" height="59.2"></rect> </g> <g> <rect x="100.4" y="81.7" class="st0" width="2.5" height="59.2"></rect> </g> <g> <rect x="121.9" y="81.7" class="st0" width="2.5" height="59.2"></rect> </g> <g> <rect x="143.3" y="81.7" class="st0" width="2.5" height="59.2"></rect> </g> <g> <rect x="48.1" y="71.8" class="st2" width="5.1" height="219.8"></rect> </g> <g> <polygon class="st3" points="177.8,292.2 172.8,290.3 172.8,71.8 177.8,71.8 "></polygon> </g> <g> <rect x="48.1" y="69.6" class="st3" width="129.7" height="5.9"></rect> </g> <g> <rect x="44.5" y="292.9" class="st3" width="136.7" height="5.5"></rect> </g> <g> <polygon class="st0" points="172.8,290.3 181.3,292.9 44.5,292.9 53.2,290.3 "></polygon> </g> </g> <g> <g> <g> <path class="st0" d="M687.2,209.4c0,0-8.5-0.6-7.7,18.4c0.8,19,2.7,29.1,2.7,29.1s-0.2,4.2-3.5,3.4c-3.3-0.8-9.4-4.9-12.4-1.9 c-3.1,3.2-2,8,2.1,13.8c4.2,5.7,12.8,18.6,13.6,19.8c0.8,1.1,1.1,3.3-1.2,3.1c-2.3-0.2-17.9-5.5-20,2.1 c-2.1,7.5,12.2,21.6,13.7,23.2c1.5,1.6,1.6,2.6,1,3.5c-0.6,0.9-5.7-1.3-10.2-2.6c-4.5-1.3-9.9-2.1-10.8,2.4 c-0.8,4.5,5.4,17.5,28.9,31.2l11.3,5.6l10.7-6.8c22-16,26.9-29.6,25.6-33.9c-1.3-4.3-6.6-3.1-10.9-1.3c-4.3,1.8-9.2,4.5-9.9,3.6 c-0.7-0.9-0.7-1.9,0.6-3.6c1.4-1.7,14.1-17.1,11.3-24.4c-2.8-7.3-17.8-0.5-20.1,0c-2.3,0.4-2.2-1.7-1.5-3 c0.7-1.2,8-14.9,11.5-21c3.6-6.1,4.2-11.1,0.8-13.9c-3.3-2.7-9,1.9-12.2,3.1c-3.2,1.1-3.8-3-3.8-3s0.9-10.2-0.2-29.2 c-1.1-18.9-9.7-17.4-9.7-17.4"></path> </g> <g> <g> <path class="st3" d="M687.8,226.4c0,0,0,0.1,0,0.4c0,0.3,0.1,0.7,0.1,1.2c0.1,1,0.2,2.5,0.3,4.5c0.3,3.9,0.6,9.5,1,16.5 c0.8,13.9,1.7,33.1,2.6,54.4c0.9,21.2,1.8,40.5,2.5,54.4c0.4,6.9,0.6,12.6,0.8,16.5c0.1,1.9,0.2,3.4,0.2,4.5c0,0.5,0,0.9,0,1.2 c0,0.3,0,0.4,0,0.4s0-0.1,0-0.4c0-0.3-0.1-0.7-0.1-1.2c-0.1-1-0.2-2.5-0.3-4.5c-0.3-3.9-0.6-9.5-1-16.5 c-0.8-13.9-1.7-33.1-2.6-54.4c-0.9-21.2-1.8-40.5-2.5-54.4c-0.4-6.9-0.6-12.6-0.8-16.5c-0.1-1.9-0.2-3.4-0.2-4.5 c0-0.5,0-0.9,0-1.2C687.8,226.5,687.8,226.4,687.8,226.4z"></path> </g> </g> <g> <g> <path class="st3" d="M674.6,264.4c0,0,0.3,0.2,0.7,0.6c0.4,0.4,1,1,1.8,1.7c1.5,1.5,3.5,3.6,5.7,5.9c2.1,2.3,4,4.4,5.5,6 c0.7,0.7,1.2,1.3,1.7,1.8c0.4,0.4,0.6,0.7,0.6,0.7c0,0-0.3-0.2-0.7-0.6c-0.4-0.4-1-1-1.8-1.7c-1.5-1.5-3.4-3.6-5.6-6 c-2.1-2.3-4.1-4.4-5.6-6c-0.7-0.7-1.2-1.3-1.7-1.8C674.8,264.7,674.6,264.4,674.6,264.4z"></path> </g> </g> <g> <g> <path class="st3" d="M691.7,280.8c-0.1-0.1,4-4.4,9.2-9.6c5.2-5.2,9.4-9.4,9.5-9.3s-4,4.4-9.2,9.6 C696,276.7,691.8,280.9,691.7,280.8z"></path> </g> </g> <g> <g> <path class="st3" d="M691.6,313.5c0,0,0.3-0.2,0.8-0.5c0.6-0.3,1.3-0.8,2.2-1.2c1.9-1,4.4-2.5,7.2-4.2c2.8-1.7,5.2-3.3,7-4.5 c0.8-0.6,1.5-1,2.1-1.4c0.5-0.3,0.8-0.5,0.8-0.5c0,0-0.2,0.2-0.7,0.6c-0.5,0.4-1.2,0.9-2,1.5c-1.7,1.3-4.2,2.9-7,4.6 c-2.8,1.7-5.4,3.1-7.3,4.1c-1,0.5-1.7,0.9-2.3,1.1C691.9,313.4,691.6,313.5,691.6,313.5z"></path> </g> </g> <g> <g> <path class="st3" d="M672.9,302c0,0,0.3,0.1,0.8,0.4c0.5,0.3,1.2,0.6,2,1.1c1.7,1,4.1,2.3,6.7,3.9c2.6,1.5,4.9,3,6.6,4 c0.8,0.5,1.5,1,2,1.3c0.5,0.3,0.7,0.5,0.7,0.5c0,0-0.3-0.1-0.8-0.4c-0.5-0.3-1.2-0.6-2-1.1c-1.7-1-4.1-2.3-6.7-3.9 c-2.6-1.5-4.9-3-6.6-4c-0.8-0.5-1.5-1-2-1.3C673.2,302.2,672.9,302.1,672.9,302z"></path> </g> </g> <g> <g> <path class="st3" d="M669.2,330.9c0,0,0.4,0.1,1,0.5c0.7,0.4,1.6,0.9,2.6,1.4c2.2,1.2,5.2,3,8.6,4.9c3.3,1.9,6.3,3.7,8.5,5 c1,0.6,1.9,1.2,2.6,1.6c0.6,0.4,0.9,0.6,0.9,0.6c0,0-0.4-0.1-1-0.5c-0.7-0.4-1.6-0.9-2.6-1.4c-2.2-1.2-5.2-3-8.6-4.9 c-3.3-1.9-6.3-3.7-8.5-5c-1-0.6-1.9-1.2-2.6-1.6C669.5,331.1,669.2,330.9,669.2,330.9z"></path> </g> </g> <g> <g> <path class="st3" d="M692.9,344.5c0,0,0.3-0.3,1-0.7c0.7-0.4,1.6-1,2.7-1.7c2.3-1.4,5.5-3.4,9-5.6c3.5-2.3,6.6-4.4,8.8-5.9 c1.1-0.7,1.9-1.4,2.6-1.8c0.6-0.4,1-0.7,1-0.6c0,0-0.3,0.3-0.9,0.8c-0.6,0.5-1.5,1.1-2.6,1.9c-2.2,1.6-5.2,3.8-8.7,6 c-3.5,2.3-6.7,4.2-9,5.5c-1.2,0.7-2.1,1.2-2.8,1.6C693.3,344.3,692.9,344.5,692.9,344.5z"></path> </g> </g> </g> <g> <g> <g> <polygon class="st3" points="709.9,363.9 678.7,363.9 688.9,441 699.7,441 "></polygon> </g> </g> <g> <g> <g> <path class="st2" d="M680.3,373.4c0,0,0,0.1,0.2,0.3c0.1,0.2,0.4,0.4,0.8,0.5c0.7,0.3,2,0.3,3.3-0.4c1.3-0.7,2.4-2.1,4-2.7 c1.7-0.6,3.7-0.5,5.7,0.1c2,0.6,3.8,1.6,5.3,2.6c1.6,0.9,3,1.8,4.3,2.3c1.3,0.6,2.4,0.8,3.2,0.9c0.4,0.1,0.7,0.1,0.9,0.1 c0.2,0,0.3,0,0.3,0c0-0.1-1.8-0.1-4.3-1.3c-1.3-0.6-2.7-1.4-4.3-2.4c-1.6-1-3.4-2-5.4-2.7c-2.1-0.7-4.3-0.8-6.1-0.1 c-0.9,0.3-1.7,0.9-2.3,1.4c-0.6,0.5-1.2,1-1.8,1.4c-1.1,0.7-2.3,0.8-3,0.5C680.6,373.8,680.3,373.4,680.3,373.4z"></path> </g> </g> </g> <g> <g> <g> <path class="st2" d="M681.4,387.6c0,0,0.2-0.3,0.7-0.8c0.5-0.5,1.3-1.1,2.5-1.6c1.2-0.4,2.7-0.7,4.3-0.7 c1.7,0.1,3.5,0.4,5.4,0.7c1.9,0.3,3.8,0.5,5.6,0.2c1.7-0.2,3.2-0.7,4.4-1.2c1.2-0.5,2.1-1.1,2.6-1.6c0.6-0.4,0.9-0.7,0.8-0.7 c-0.1-0.1-1.3,1-3.6,2c-1.2,0.5-2.6,0.9-4.3,1.1c-1.7,0.2-3.5,0.1-5.4-0.3c-1.9-0.3-3.8-0.7-5.5-0.7c-1.7,0-3.3,0.3-4.5,0.8 c-1.2,0.5-2,1.2-2.5,1.8c-0.2,0.3-0.4,0.5-0.5,0.7C681.5,387.5,681.4,387.6,681.4,387.6z"></path> </g> </g> </g> <g> <g> <g> <path class="st2" d="M706.3,395.2c0,0-0.3-0.2-0.9-0.4c-0.6-0.2-1.5-0.5-2.6-0.6c-1.1-0.1-2.5,0-3.9,0.2c-1.5,0.2-3,0.6-4.7,1 c-1.6,0.3-3.2,0.6-4.6,0.5c-1.4,0-2.7-0.4-3.7-0.8c-2-0.9-2.7-2.2-2.8-2.1c0,0,0.1,0.3,0.5,0.8c0.4,0.5,1.1,1.1,2.1,1.6 c1,0.5,2.3,0.9,3.8,0.9c1.5,0.1,3.1-0.1,4.8-0.5c1.7-0.4,3.2-0.8,4.6-1c1.4-0.3,2.7-0.4,3.8-0.3 C705.1,394.6,706.3,395.3,706.3,395.2z"></path> </g> </g> </g> <g> <g> <g> <path class="st2" d="M684.2,405.9c0,0.1,1.1-0.7,3-0.3c0.9,0.2,2,0.6,3.2,1.2c1.2,0.5,2.6,1,4.1,1.1c3.1,0.3,5.8-0.7,7.5-1.7 c0.9-0.5,1.5-1.1,1.9-1.4c0.4-0.4,0.6-0.6,0.5-0.7c-0.1-0.1-0.9,0.8-2.6,1.8c-1.7,0.9-4.3,1.8-7.2,1.5c-3-0.2-5.2-1.9-7.3-2.2 c-1-0.1-1.8,0-2.4,0.2C684.4,405.7,684.2,405.9,684.2,405.9z"></path> </g> </g> </g> <g> <g> <g> <path class="st2" d="M685.9,420.7c0,0.1,1,0.1,2.6-0.5c1.6-0.5,3.5-1.7,5.8-2.6c1.1-0.4,2.3-0.7,3.3-0.7c1,0,2,0.3,2.7,0.6 c1.4,0.7,1.8,1.7,1.9,1.7c0,0,0-0.3-0.3-0.7c-0.3-0.4-0.7-0.9-1.5-1.3c-0.7-0.4-1.7-0.7-2.8-0.8c-1.1,0-2.3,0.2-3.5,0.7 c-2.3,0.9-4.2,2.2-5.7,2.8C686.9,420.5,685.9,420.6,685.9,420.7z"></path> </g> </g> </g> <g> <g> <g> <path class="st2" d="M687.5,427.6c0,0.1,0.7,0.3,2,0.6c1.2,0.3,3,0.6,4.9,0.8c2,0.2,3.7,0.2,5,0.1c1.3-0.1,2.1-0.2,2.1-0.2 c0-0.2-3.2,0-7-0.4C690.6,428.2,687.5,427.4,687.5,427.6z"></path> </g> </g> </g> </g> </g> <g> <g> <rect x="595.8" y="84.3" class="st3" width="96.4" height="63.4"></rect> </g> <g> <rect x="599.2" y="86.9" class="st1" width="89.6" height="57.9"></rect> </g> <g> <rect x="629.3" y="108" class="st3" width="29.2" height="15.9"></rect> </g> </g> </g> <g id="Background_Simple" class="st4"> <g class="st5"> <path class="st2" d="M676.5,217.5c-3.4-28.3-24.2-53.9-51.2-63c-30.8-10.4-64.4-0.2-95.1,10.5c-30.7,10.7-63.5,22.2-95,14.3 c-43.2-10.8-69.3-53.5-104.1-81.3c-37.2-29.8-87.4-42.7-134.3-34.7c-26.7,4.5-53.3,16.3-70.2,37.5c-14.7,18.4-31.1,47.6-31.8,71.1 c-1.3,42.8,10.1,83,51.6,130.8c124.6,129.6,270.4,109.7,401.8,84c32.6-6.4,66.6-30.9,94-59.5C674.5,293.8,680.5,250.5,676.5,217.5 z"></path> </g> </g> <g id="Floor"> <g> <g> <path class="st6" d="M719.2,442.1c0,0.1-154.1,0.3-344.2,0.3c-190.2,0-344.3-0.1-344.3-0.3s154.1-0.3,344.3-0.3 C565.1,441.8,719.2,441.9,719.2,442.1z"></path> </g> </g> </g> <g id="Device"> <g> <g> <path class="st0" d="M480.2,251H290.1V38.2h206.4v196.5C496.5,243.7,489.2,251,480.2,251z"></path> </g> <g> <g> <g> <path class="st7" d="M479.4,101.6c0,0.4-37.3,0.8-83.3,0.8c-46,0-83.3-0.3-83.3-0.8c0-0.4,37.3-0.8,83.3-0.8 C442.1,100.8,479.4,101.1,479.4,101.6z"></path> </g> </g> <g> <g> <path class="st7" d="M397.1,116c0,0.4-18.4,0.8-41.2,0.8c-22.7,0-41.2-0.3-41.2-0.8c0-0.4,18.4-0.8,41.2-0.8 C378.7,115.2,397.1,115.5,397.1,116z"></path> </g> </g> <g> <g> <path class="st7" d="M430,114.6c0,0.4-4.9,0.8-10.9,0.8c-6,0-10.9-0.3-10.9-0.8c0-0.4,4.9-0.8,10.9-0.8 C425.1,113.9,430,114.2,430,114.6z"></path> </g> </g> <g> <g> <path class="st7" d="M483.9,113.8c0,0.4-9.7,0.8-21.6,0.8c-11.9,0-21.6-0.3-21.6-0.8c0-0.4,9.7-0.8,21.6-0.8 C474.2,113,483.9,113.3,483.9,113.8z"></path> </g> </g> <g> <g> <path class="st7" d="M390.2,129.8c0,0.4-17.3,0.8-38.7,0.8c-21.4,0-38.7-0.3-38.7-0.8c0-0.4,17.3-0.8,38.7-0.8 C372.9,129,390.2,129.3,390.2,129.8z"></path> </g> </g> <g> <g> <path class="st7" d="M483.9,129.4c0,0.4-18.9,0.8-42.3,0.8c-23.3,0-42.3-0.3-42.3-0.8c0-0.4,18.9-0.8,42.3-0.8 C464.9,128.6,483.9,128.9,483.9,129.4z"></path> </g> </g> <g> <g> <path class="st7" d="M483.9,143.3c0,0.4-8.4,0.8-18.8,0.8c-10.4,0-18.8-0.3-18.8-0.8c0-0.4,8.4-0.8,18.8-0.8 C475.4,142.5,483.9,142.8,483.9,143.3z"></path> </g> </g> </g> <g> <g> <path class="st8" d="M406,86.1c0,0.4-20.4,0.8-45.6,0.8c-25.2,0-45.6-0.3-45.6-0.8c0-0.4,20.4-0.8,45.6-0.8 C385.6,85.3,406,85.7,406,86.1z"></path> </g> </g> </g> <g> <g> <g> <g> <g> <g> <g> <path class="st6" d="M532.9,440.9H133.3c-8,0-14.6-6.5-14.6-14.6V172c0-8,6.5-14.6,14.6-14.6h399.5c8,0,14.6,6.5,14.6,14.6 v254.3C547.4,434.4,540.9,440.9,532.9,440.9z"></path> </g> </g> </g> <g> <g> <g> <path class="st6" d="M548.1,444.7H119.2c-9.8,0-17.8-8-17.8-17.8v-7h464.4v7C565.9,436.8,557.9,444.7,548.1,444.7z"></path> </g> </g> </g> <g> <g> <g> <rect x="130.9" y="168.7" class="st7" width="404.5" height="239.4"></rect> </g> </g> </g> <g> <g> <g> <g> <path class="st7" d="M291.4,419.9c0,0,0.1,0,0.4,0c0.3,0,0.8,0,1.4,0c1.2,0,3,0,5.3,0c4.6,0,11.3,0,19.6-0.1 c16.7,0,39.8-0.1,65.5-0.1l0.5,0l-0.2,0.4c-0.8,1.4-1.7,2.9-2.6,4.5c-0.9,1.6-1.9,3.2-2.8,4.7l-0.1,0.1l-0.2,0 c-35.6-0.1-66.1-0.1-81.1-0.2l-0.1,0l0-0.1c-1.8-3-3.3-5.3-4.2-6.9c-0.5-0.8-0.8-1.3-1.1-1.7 C291.5,420.1,291.4,419.9,291.4,419.9s0.1,0.2,0.4,0.6c0.3,0.4,0.6,1,1.1,1.8c1,1.5,2.4,3.8,4.3,6.7l-0.1-0.1 c15,0,45.5-0.1,81.1-0.2l-0.2,0.1c0.9-1.5,1.8-3.1,2.7-4.7c0.9-1.5,1.8-3,2.6-4.5l0.2,0.4c-25.7-0.1-48.6-0.1-65.3-0.1 c-8.3,0-15-0.1-19.7-0.1c-2.3,0-4.1,0-5.4,0c-0.6,0-1.1,0-1.4,0C291.6,419.9,291.4,419.9,291.4,419.9z"></path> </g> </g> </g> </g> </g> </g> </g> <g> <g> <line class="st6" x1="118.8" y1="419.9" x2="547.4" y2="419.9"></line> </g> <g> <g> <path class="st7" d="M547.4,419.9c0,0.1-96,0.3-214.3,0.3c-118.4,0-214.3-0.1-214.3-0.3c0-0.1,95.9-0.3,214.3-0.3 C451.5,419.7,547.4,419.8,547.4,419.9z"></path> </g> </g> </g> </g> <g> <g> <path class="st6" d="M438,120.9L438,120.9c6.6,0,12,5.4,12,12v24.6h-35.8v-22.7c0-7.7,6.2-13.9,13.9-13.9H438z"></path> </g> <g> <g> <path class="st6" d="M438,120.9c0,0.1-33.8,0.2-75.4,0.2c-41.7,0-75.5-0.2-75.5-0.3c0-0.1,33.8-0.2,75.5-0.2 C404.2,120.6,438,120.7,438,120.9z"></path> </g> </g> <g> <path class="st1" d="M437.7,120.8l-14.9-0.1l-21.7,0.1H241.8c-13.5,0-24.5,11-24.5,24.5v258.7v4.5h206.4V134.3 C424.2,120.9,437.7,120.8,437.7,120.8z"></path> </g> <g> <path class="st6" d="M437.7,120.8l-124.4,0.3l-62.2,0l-7.8,0c-1.3,0-2.6,0.1-3.9,0.1c-1.3,0.2-2.5,0.3-3.8,0.7 c-5,1.2-9.4,4.2-12.7,8.2c-1.6,2-2.9,4.2-3.8,6.6c-0.2,0.6-0.5,1.2-0.6,1.8l-0.5,1.9c-0.2,1.3-0.4,2.5-0.4,3.8 c-0.1,5.2,0,10.4,0,15.5l0.2,248.9l-0.5-0.5l206.4,0.1l-0.4,0.4l0.1-148l0.1-74l0.1-37l0-9.2l0-4.6c0-0.8,0-1.5,0.1-2.3 c0.1-0.8,0.1-1.5,0.4-2.3c0.7-3,2.4-5.8,5-7.5c1.3-0.9,2.7-1.6,4.1-2C434.6,121.2,436.2,120.9,437.7,120.8z M437.7,120.8 c-1.5,0.1-3.1,0.4-4.5,0.8c-1.5,0.4-2.9,1.1-4.1,2c-2.6,1.7-4.3,4.5-4.9,7.5c-0.2,0.7-0.3,1.5-0.4,2.3c-0.1,0.8-0.1,1.5-0.1,2.3 l0,4.6l0,9.3l0.1,37l0.1,74l0.1,148l0,0.4l-0.4,0l-206.4,0.1l-0.5,0l0-0.5l0.2-248.9c0-5.2-0.1-10.4,0.1-15.6 c0-1.3,0.3-2.6,0.5-3.9l0.5-1.9c0.1-0.6,0.4-1.2,0.6-1.9c0.9-2.4,2.2-4.8,3.9-6.8c3.3-4,7.9-7.1,13-8.4c1.3-0.4,2.6-0.5,3.9-0.7 c1.3-0.1,2.6-0.1,3.9-0.1l7.8,0l62.2,0L437.7,120.8z"></path> </g> <g> <path class="st8" d="M248.3,168.2h36l0.1,12.1h-1.7c-0.6-4.3-2.2-7.2-4.8-8.8c-1.5-0.8-3.7-1.3-6.7-1.4v31.5 c0,2.2,0.4,3.7,1.2,4.4c0.8,0.7,2.4,1.1,4.8,1.1v1.5h-21.3v-1.5c2.3,0,3.9-0.4,4.7-1.1c0.8-0.7,1.2-2.2,1.2-4.4v-31.5 c-2.9,0.1-5.2,0.5-6.7,1.4c-2.9,1.6-4.5,4.5-4.8,8.8h-1.7L248.3,168.2z"></path> </g> <g> <g> <path class="st8" d="M395.3,171c0,0.4-19.9,0.8-44.4,0.8c-24.5,0-44.4-0.3-44.4-0.8c0-0.4,19.9-0.8,44.4-0.8 C375.4,170.2,395.3,170.5,395.3,171z"></path> </g> </g> <g> <g> <path class="st7" d="M342.7,185.1c0,0.4-7.7,0.8-17.2,0.8c-9.5,0-17.2-0.3-17.2-0.8c0-0.4,7.7-0.8,17.2-0.8 C335,184.4,342.7,184.7,342.7,185.1z"></path> </g> </g> <g> <g> <path class="st7" d="M299.4,228.4c0,0.4-14.6,0.8-32.6,0.8c-18,0-32.6-0.3-32.6-0.8c0-0.4,14.6-0.8,32.6-0.8 C284.8,227.6,299.4,227.9,299.4,228.4z"></path> </g> </g> <g> <g> <path class="st8" d="M373.2,228.4c0,0.4-14.6,0.8-32.6,0.8c-18,0-32.6-0.3-32.6-0.8c0-0.4,14.6-0.8,32.6-0.8 C358.6,227.6,373.2,227.9,373.2,228.4z"></path> </g> </g> <g> <g> <path class="st7" d="M299.4,239.9c0,0.4-14.6,0.8-32.6,0.8c-18,0-32.6-0.3-32.6-0.8c0-0.4,14.6-0.8,32.6-0.8 C284.8,239.1,299.4,239.5,299.4,239.9z"></path> </g> </g> <g> <g> <path class="st8" d="M299.4,251.5c0,0.4-14.6,0.8-32.6,0.8c-18,0-32.6-0.3-32.6-0.8c0-0.4,14.6-0.8,32.6-0.8 C284.8,250.7,299.4,251,299.4,251.5z"></path> </g> </g> <g> <g> <path class="st7" d="M342.7,208.7c0,0.4-7.7,0.8-17.2,0.8c-9.5,0-17.2-0.3-17.2-0.8c0-0.4,7.7-0.8,17.2-0.8 C335,207.9,342.7,208.2,342.7,208.7z"></path> </g> </g> <g> <g> <path class="st7" d="M402.2,228.4c0,0.4-5.1,0.8-11.4,0.8c-6.3,0-11.4-0.3-11.4-0.8c0-0.4,5.1-0.8,11.4-0.8 C397,227.6,402.2,227.9,402.2,228.4z"></path> </g> </g> <g> <g> <path class="st7" d="M408.3,185.1c0,0.4-13.2,0.8-29.4,0.8c-16.3,0-29.4-0.3-29.4-0.8c0-0.4,13.2-0.8,29.4-0.8 C395.1,184.4,408.3,184.7,408.3,185.1z"></path> </g> </g> <g> <g> <path class="st7" d="M405.6,196.4c0,0.4-21.8,0.8-48.6,0.8c-26.9,0-48.6-0.3-48.6-0.8c0-0.4,21.8-0.8,48.6-0.8 C383.8,195.6,405.6,196,405.6,196.4z"></path> </g> </g> <g> <g> <path class="st7" d="M402.2,239.9c0,0.4-21.1,0.8-47.1,0.8c-26,0-47.1-0.3-47.1-0.8c0-0.4,21.1-0.8,47.1-0.8 C381.1,239.1,402.2,239.5,402.2,239.9z"></path> </g> </g> <g> <g> <path class="st8" d="M402.2,273.4c0,0.4-19.8,0.8-44.2,0.8c-24.4,0-44.2-0.3-44.2-0.8c0-0.4,19.8-0.8,44.2-0.8 C382.4,272.6,402.2,272.9,402.2,273.4z"></path> </g> </g> <g> <g> <path class="st7" d="M402.2,284.6c0,0.4-19.8,0.8-44.2,0.8c-24.4,0-44.2-0.3-44.2-0.8c0-0.4,19.8-0.8,44.2-0.8 C382.4,283.8,402.2,284.2,402.2,284.6z"></path> </g> </g> <g> <g> <path class="st7" d="M402.2,295.8c0,0.4-19.8,0.8-44.2,0.8c-24.4,0-44.2-0.3-44.2-0.8c0-0.4,19.8-0.8,44.2-0.8 C382.4,295.1,402.2,295.4,402.2,295.8z"></path> </g> </g> <g> <g> <path class="st7" d="M402.2,307.1c0,0.4-19.8,0.8-44.2,0.8c-24.4,0-44.2-0.3-44.2-0.8c0-0.4,19.8-0.8,44.2-0.8 C382.4,306.3,402.2,306.6,402.2,307.1z"></path> </g> </g> <g> <g> <path class="st7" d="M364.7,318.3c0,0.2-2.8,0.4-7.4,0.6c-4.6,0.1-11,0.2-18,0.2c-7,0-13.4-0.1-18-0.2c-4.6-0.1-7.4-0.3-7.4-0.6 c0-0.2,2.8-0.4,7.4-0.6c4.6-0.1,11-0.2,18-0.2c7,0,13.4,0.1,18,0.2C361.8,317.9,364.7,318.1,364.7,318.3z"></path> </g> </g> <g> <g> <path class="st7" d="M386.2,252.1c0,0.4-17,0.8-38,0.8c-21,0-38-0.3-38-0.8c0-0.4,17-0.8,38-0.8 C369.1,251.3,386.2,251.6,386.2,252.1z"></path> </g> </g> <g> <g> <g> <g> <polygon class="st3" points="297.9,274.6 302.6,361.4 217.7,372 217.7,273.9 "></polygon> </g> </g> </g> <g> <g> <g> <rect x="199.3" y="257.4" transform="matrix(6.424597e-03 -1 1 6.424597e-03 -71.2768 558.2645)" class="st2" width="92" height="115.1"></rect> </g> </g> </g> <g> <rect x="205" y="261.5" transform="matrix(6.424121e-03 -1 1 6.424121e-03 -71.3508 558.189)" class="st8" width="80.4" height="107"></rect> </g> <g class="st9"> <polygon points="191.4,354.9 229.1,305.1 252.1,336.5 267.9,319.9 298.5,355.6 "></polygon> </g> <g class="st9"> <g> <g> <path d="M262.2,299.2c0,4.7-3.8,8.4-8.5,8.4c-4.7,0-8.4-3.8-8.4-8.5c0-4.7,3.8-8.4,8.5-8.4S262.2,294.5,262.2,299.2z"></path> </g> </g> </g> </g> <g> <g> <path class="st6" d="M313.6,383.1c0,1-0.8,1.8-1.8,1.8c-1,0-1.8-0.8-1.8-1.8s0.8-1.8,1.8-1.8 C312.8,381.3,313.6,382.1,313.6,383.1z"></path> </g> <g> <path class="st6" d="M324.2,383.1c0,1-0.8,1.8-1.8,1.8s-1.8-0.8-1.8-1.8s0.8-1.8,1.8-1.8S324.2,382.1,324.2,383.1z"></path> </g> <g> <path class="st6" d="M334.8,383.1c0,1-0.8,1.8-1.8,1.8c-1,0-1.8-0.8-1.8-1.8s0.8-1.8,1.8-1.8C334,381.3,334.8,382.1,334.8,383.1 z"></path> </g> </g> <g> <g> <path class="st8" d="M373.7,341.7c0,0.4-14.6,0.8-32.6,0.8c-18,0-32.6-0.3-32.6-0.8c0-0.4,14.6-0.8,32.6-0.8 C359.1,341,373.7,341.3,373.7,341.7z"></path> </g> </g> <g> <g> <path class="st7" d="M402.6,353.3c0,0.4-21.1,0.8-47.1,0.8c-26,0-47.1-0.3-47.1-0.8c0-0.4,21.1-0.8,47.1-0.8 C381.6,352.5,402.6,352.9,402.6,353.3z"></path> </g> </g> </g> </g> <g id="Box"> <g> <g> <g> <g> <g> <rect x="616.5" y="365.8" transform="matrix(6.423259e-03 -1 1 6.423259e-03 239.5887 1042.0752)" class="st2" width="55.4" height="69.3"></rect> </g> </g> </g> <rect x="619.9" y="368.2" transform="matrix(6.424412e-03 -1 1 6.424412e-03 239.5433 1042.0292)" class="st8" width="48.5" height="64.5"></rect> <polygon class="st9" points="611.8,424.5 634.5,394.5 648.3,413.5 657.8,403.4 676.2,424.9 "></polygon> <g class="st9"> <g> <path d="M654.4,391c0,2.8-2.3,5.1-5.1,5s-5.1-2.3-5-5.1c0-2.8,2.3-5.1,5.1-5C652.1,385.9,654.4,388.2,654.4,391z"></path> </g> </g> </g> <g> <g> <g> <g> <rect x="606.3" y="360" transform="matrix(6.424794e-03 -1 1 6.424794e-03 235.2729 1026.1539)" class="st2" width="55.4" height="69.3"></rect> </g> </g> </g> <rect x="609.7" y="362.4" transform="matrix(6.424412e-03 -1 1 6.424412e-03 235.2285 1026.1084)" class="st8" width="48.5" height="64.5"></rect> <polygon class="st9" points="601.6,418.7 624.3,388.7 638.1,407.7 647.6,397.6 666.1,419.1 "></polygon> <g class="st9"> <g> <path d="M644.2,385.2c0,2.8-2.3,5.1-5.1,5c-2.8,0-5.1-2.3-5-5.1c0-2.8,2.3-5.1,5.1-5C641.9,380.1,644.2,382.4,644.2,385.2z"></path> </g> </g> </g> <g> <g> <g> <g> <rect x="597.2" y="355.2" transform="matrix(6.423248e-03 -1 1 6.423248e-03 231.0597 1012.3452)" class="st2" width="55.4" height="69.3"></rect> </g> </g> </g> <rect x="600.7" y="357.7" transform="matrix(6.422861e-03 -1 1 6.422861e-03 231.0154 1012.2997)" class="st8" width="48.5" height="64.5"></rect> <polygon class="st9" points="592.5,413.9 615.2,383.9 629.1,402.9 638.6,392.9 657,414.3 "></polygon> <g class="st9"> <g> <path d="M635.1,380.4c0,2.8-2.3,5.1-5.1,5c-2.8,0-5.1-2.3-5-5.1c0-2.8,2.3-5.1,5.1-5C632.9,375.3,635.2,377.6,635.1,380.4z"></path> </g> </g> </g> <g> <g> <g> <g> <rect x="587.1" y="361.2" transform="matrix(6.423259e-03 -1 1 6.423259e-03 215.0014 1008.0927)" class="st2" width="55.4" height="69.3"></rect> </g> </g> </g> <rect x="590.5" y="363.6" transform="matrix(6.422859e-03 -1 1 6.422859e-03 214.957 1008.0473)" class="st7" width="48.5" height="64.5"></rect> <polygon class="st9" points="582.4,419.9 605.1,389.9 618.9,408.8 628.4,398.8 646.8,420.3 "></polygon> <g class="st9"> <g> <path d="M625,386.3c0,2.8-2.3,5.1-5.1,5c-2.8,0-5.1-2.3-5-5.1c0-2.8,2.3-5.1,5.1-5C622.7,381.2,625,383.5,625,386.3z"></path> </g> </g> </g> <g> <rect x="649.6" y="388.5" class="st6" width="40" height="53.5"></rect> <path class="st8" d="M573,388.5v53.5H653v-53.5H573z M621.5,401.2h-17c-2,0-3.7-1.6-3.7-3.7c0-2,1.6-3.7,3.7-3.7h17 c2,0,3.7,1.6,3.7,3.7C625.2,399.5,623.6,401.2,621.5,401.2z"></path> </g> </g> </g> <g id="Character"> <g> <g> <g> <g> <path class="st7" d="M521.1,436.5l-74.5-4.6c-0.5-1.1-0.8-1.7-0.8-1.7l-20.2,0.4l-6.6-0.4c0,0-0.1,0.2-0.3,0.5l-67.7,1.3 c-13.5,0-27.7,8.2-27.7,18.8c-0.2,10,4.7,20.9,16.8,20.7l92.3-0.3l92.3,0.3c12.1,0.2,15.3-7.1,15.3-15.7 C541.5,439.7,531.4,436.6,521.1,436.5z"></path> </g> <g> <g> <path class="st6" d="M348.6,471.5c0,0,0.2,0,0.4,0c0.3,0,0.7,0,1.3,0c1.2,0,2.9,0,5,0c4.4,0,10.7,0,18.6-0.1 c15.7,0,37.6,0,62-0.1l-0.3,0.3c-0.1-2-0.3-4.2-0.4-6.4c-0.3-4.5-0.6-8.9-0.8-13l0.2,0.2c-22.7-2.5-42.7-4.8-57.1-6.4 c-7.2-0.8-12.9-1.5-16.9-1.9c-2-0.2-3.5-0.4-4.6-0.5c-0.5-0.1-0.9-0.1-1.2-0.2c-0.3,0-0.4-0.1-0.4-0.1c0,0,0.1,0,0.4,0 c0.3,0,0.7,0.1,1.2,0.1c1.1,0.1,2.6,0.3,4.6,0.5c4,0.4,9.8,1,16.9,1.8c14.4,1.6,34.4,3.7,57.1,6.2l0.2,0l0,0.2 c0.3,4.2,0.5,8.6,0.8,13c0.1,2.2,0.3,4.3,0.4,6.4l0,0.3l-0.3,0c-24.4,0-46.2-0.1-62-0.1c-7.8,0-14.2-0.1-18.6-0.1 c-2.2,0-3.9,0-5,0c-0.6,0-1,0-1.3,0C348.8,471.5,348.6,471.5,348.6,471.5z"></path> </g> </g> <g> <g> <path class="st6" d="M367.6,445c-0.1,0.1-1-0.7-2.6-1.7c-1.6-1-4-2.2-6.8-3c-2.8-0.8-5.4-1.1-7.3-1.1c-1.9,0-3.1,0.1-3.1,0 c0,0,0.3-0.1,0.8-0.2c0.5-0.1,1.3-0.2,2.3-0.2c1.9-0.1,4.6,0.1,7.5,0.9c2.8,0.8,5.2,2.1,6.8,3.2c0.8,0.5,1.4,1,1.8,1.4 C367.5,444.8,367.7,445,367.6,445z"></path> </g> </g> <g> <g> <path class="st6" d="M515.3,441.1c0,0.1-14.7,3.7-32.8,7.9c-18.2,4.2-32.9,7.6-32.9,7.4c0-0.1,14.6-3.7,32.8-7.9 C500.5,444.3,515.2,440.9,515.3,441.1z"></path> </g> </g> <g> <g> <path class="st6" d="M502.9,439.7c0,0.2-2.8,0.7-5.8,2.8c-2.9,2-4.5,4.4-4.7,4.3c-0.1,0,0.3-0.7,1-1.6 c0.7-0.9,1.9-2.1,3.4-3.1c1.5-1,3-1.7,4.2-2C502.1,439.7,502.8,439.6,502.9,439.7z"></path> </g> </g> </g> <g> <path class="st10" d="M475.1,355.1l23.6,41.1c2.9,5.1,3.1,11.3,0.5,16.5l0,0c-3,6.1-9.3,9.8-16.1,9.6l-36.2-1l-1-13.2l31.9-6.1 l-21.5-37.2L475.1,355.1z"></path> </g> <g> <path class="st10" d="M387.2,425.4l33.3,8.8l0.7-10l-30.7-17.8l22.4-41.6l-18.8-9.7l-23.6,41.1l0,0 c-5.7,10.6-0.4,23.8,11.1,27.4L387.2,425.4z"></path> </g> <g> <path class="st8" d="M465.1,381.5l22.8-12c0,0-3.8-8-9.8-16.3c-7.1-9.7-18-16.6-30.4-19.2c0,0,0,0,0,0l-26.2,0.3 c-3.7,0.4-6.8,1.1-9.3,2.1l0-0.1c-14.2,3.1-30,34.1-30,34.1l20.7,10.9l0.5,3.3c0.6,4.3,2.5,8.3,5.4,11.6l-6,39.7l67.2,1.4 l-8.6-28.4L465.1,381.5z"></path> </g> <g> <g> <path class="st6" d="M409.4,396.5c0,0-0.4-0.2-1-0.8c-0.6-0.5-1.4-1.4-2.3-2.6c-1.7-2.3-3.2-6.3-2.8-10.8 c0.3-2.2,0.9-4.2,1.5-6c0.6-1.8,1.2-3.4,1.7-4.7c0.5-1.3,1-2.4,1.3-3.1c0.3-0.7,0.5-1.1,0.6-1.1c0,0-0.1,0.4-0.4,1.2 c-0.3,0.9-0.7,1.9-1.2,3.2c-0.5,1.3-1.1,3-1.6,4.8c-0.6,1.8-1.2,3.8-1.5,5.9c-0.2,2.1,0.1,4.2,0.6,6c0.5,1.8,1.3,3.3,2,4.5 C408.1,395.4,409.5,396.5,409.4,396.5z"></path> </g> </g> <g> <g> <polygon class="st6" points="399.4,445.6 395.6,401.3 477.5,401.3 472,446.1 "></polygon> </g> <g> <path class="st1" d="M441.7,424.9c0,2.9-2.3,5.2-5.2,5.2c-2.9,0-5.2-2.3-5.2-5.2c0-2.9,2.3-5.2,5.2-5.2 C439.4,419.7,441.7,422,441.7,424.9z"></path> </g> </g> <g> <g> <polygon class="st10" points="435.1,454.2 449,456.2 449,471.3 436.2,470.9 "></polygon> </g> <g> <g> <path class="st8" d="M449,456.2h6.3c1.2,0,2.4,0.3,3.5,0.9l3.3,1.9c1.1,0.6,4.6,2.4,5.8,2.7c3.8,1.2,10.2,2.9,11.5,3.9 c3.8,3,2.7,6.5,0.6,6.8c-1.9,0.3-30.9-1.2-30.9-1.2V456.2z"></path> </g> <g> <g> <path class="st6" d="M459.3,470c-0.1,0-0.6-1.7-0.7-3.9c-0.1-2.2,0.3-4,0.4-4c0.1,0,0,1.8,0.1,3.9 C459.2,468.2,459.4,470,459.3,470z"></path> </g> </g> <g> <g> <path class="st6" d="M462.2,469.9c-0.1,0-0.2-1.6-0.2-3.6c0-2,0.1-3.6,0.3-3.6c0.1,0,0.2,1.6,0.2,3.6 C462.5,468.3,462.4,469.9,462.2,469.9z"></path> </g> </g> <g> <g> <path class="st6" d="M465.7,470.5c-0.1,0-0.4-1.6-0.5-3.7c-0.2-2.1-0.2-3.7,0-3.7c0.1,0,0.4,1.6,0.5,3.7 C465.9,468.8,465.9,470.5,465.7,470.5z"></path> </g> </g> <g> <g> <path class="st6" d="M456.5,466c0,0-0.5-0.1-1.3-0.4c-0.8-0.3-1.9-0.9-3.1-1.9c-0.3-0.3-0.6-0.5-0.9-0.8 c-0.3-0.3-0.6-0.7-0.8-1.1c-0.2-0.5-0.2-1.1,0.2-1.6c0.2-0.2,0.5-0.4,0.8-0.4c0.3,0,0.6,0,0.8,0.1c2,0.7,3.8,2.7,4.1,5.1 c0.3,2.5-1,4.8-2.8,5.9c-0.4,0.3-0.9,0.5-1.4,0.6c-0.3,0-0.5,0.1-0.8,0c-0.3-0.1-0.5-0.3-0.6-0.6c-0.2-0.5,0-1.1,0.2-1.4 c0.2-0.4,0.5-0.7,0.8-1c1.1-1.1,2.3-1.7,3.1-2c0.8-0.3,1.3-0.4,1.3-0.4c0,0-0.4,0.2-1.2,0.6c-0.8,0.4-1.8,1-2.9,2.1 c-0.3,0.3-0.5,0.6-0.7,0.9c-0.2,0.3-0.3,0.8-0.1,1.1c0.2,0.3,0.6,0.4,1,0.3c0.4-0.1,0.8-0.3,1.2-0.6c1.6-1.1,2.8-3.2,2.5-5.5 c-0.3-2.2-1.9-4.1-3.7-4.7c-0.4-0.2-0.9-0.1-1.1,0.2c-0.2,0.3-0.3,0.7-0.1,1.1c0.3,0.7,1,1.3,1.5,1.8 C454.7,465.4,456.6,465.9,456.5,466z"></path> </g> </g> </g> <g> <g> <path class="st6" d="M479.9,472.5c0,0,0.4-0.2,0.8-0.9c0.4-0.7,0.3-1.9-0.4-3.2c-0.7-1.2-2.1-2.3-3.9-2.9 c-1.8-0.6-3.9-0.9-6-1.6c-4.3-1.3-7.9-3.1-10.3-4.7c-1.2-0.8-2.2-1.5-2.8-2c-0.6-0.5-1-0.8-0.9-0.8c0,0,0.4,0.2,1.1,0.7 c0.7,0.4,1.6,1.1,2.9,1.8c2.5,1.5,6.1,3.3,10.3,4.5c2.1,0.7,4.2,1,6,1.7c1.8,0.7,3.3,1.8,4,3.2c0.7,1.3,0.7,2.7,0.3,3.4 c-0.2,0.4-0.5,0.6-0.6,0.7C480,472.4,479.9,472.5,479.9,472.5z"></path> </g> </g> </g> <g> <g> <path class="st2" d="M470.4,344.9c0,0,0,0.1,0,0.2c0,0.2,0,0.4,0,0.6c-0.1,0.6-0.1,1.4-0.2,2.4c-0.2,2.1-0.5,5.2-0.9,9.1l0,0.2 l-0.2-0.1c-3.3-1.8-7.4-3.9-12.1-6.4l0.3-0.1c-2,3.4-4.2,7.1-6.6,11.1l-0.1,0.2l-0.2-0.2c-3.5-2.6-7.2-5.5-11-8.5l0.3,0 c-1.5,1.2-3.2,2.5-4.8,3.8c-2.2,1.7-4.4,3.5-6.6,5.1l-0.2,0.2l-0.1-0.3c-2.2-4-4.3-7.9-6.2-11.6l0.3,0.1 c-4.8,2.1-9.3,4.1-13.2,5.9l-0.2,0.1l0-0.3c-0.8-4.5-1.4-8.5-2-11.8l0.2,0.1c-3.2,1.2-5.8,2.2-7.6,2.9c-0.9,0.3-1.5,0.6-2,0.7 c-0.2,0.1-0.4,0.1-0.5,0.2c-0.1,0-0.2,0.1-0.2,0c0,0,0.1,0,0.2-0.1c0.1-0.1,0.3-0.1,0.5-0.2c0.5-0.2,1.1-0.5,2-0.8 c1.8-0.7,4.3-1.7,7.5-3l0.2-0.1l0,0.2c0.6,3.3,1.3,7.2,2.1,11.8l-0.3-0.2c4-1.8,8.4-3.8,13.2-6l0.2-0.1l0.1,0.2 c2,3.7,4.1,7.5,6.3,11.5l-0.4-0.1c2.1-1.7,4.3-3.4,6.6-5.1c1.6-1.3,3.3-2.6,4.8-3.8l0.2-0.1l0.2,0.1c3.9,3,7.6,5.8,11,8.5 l-0.4,0.1c2.4-4,4.6-7.7,6.6-11l0.1-0.2l0.2,0.1c4.6,2.5,8.7,4.7,12,6.5l-0.2,0.1c0.4-3.9,0.8-6.9,1.1-9.1 c0.1-1,0.2-1.8,0.3-2.4c0-0.3,0.1-0.5,0.1-0.6C470.4,345,470.4,344.9,470.4,344.9z"></path> </g> </g> <g> <g> <path class="st2" d="M480.1,356.1c0,0,0,0.1-0.1,0.3c-0.1,0.2-0.1,0.5-0.2,0.8c-0.2,0.8-0.5,1.9-0.9,3.3 c-0.8,2.9-1.9,7-3.3,12.2l-0.1,0.2l-0.2-0.1c-4-1.9-8.8-4.2-14.1-6.8l0.3-0.1c-3.6,5.1-7.6,10.9-11.9,16.9l-0.2,0.2l-0.2-0.2 c-3.6-3.7-7.5-7.6-11.4-11.6c-0.8-0.8-1.6-1.6-2.4-2.4l0.3,0c-5.4,3.4-10.5,6.6-15.4,9.6l-0.2,0.1l-0.1-0.2 c-3-5.2-5.8-10.2-8.3-14.7l0.3,0.1c-6.1,2.1-11.4,3.9-15.8,5.4l-0.2,0.1l-0.1-0.1c-1.5-4.3-2.7-7.8-3.5-10.2 c-0.4-1.2-0.7-2.1-0.9-2.7c-0.1-0.3-0.2-0.5-0.2-0.7c0-0.2-0.1-0.2-0.1-0.2c0,0,0,0.1,0.1,0.2c0.1,0.2,0.2,0.4,0.3,0.7 c0.2,0.6,0.6,1.5,1,2.7c0.9,2.4,2.1,5.8,3.6,10.1l-0.2-0.1c4.4-1.5,9.7-3.4,15.8-5.6l0.2-0.1l0.1,0.2c2.6,4.5,5.4,9.4,8.3,14.6 l-0.3-0.1c4.9-3.1,10-6.3,15.4-9.7l0.2-0.1l0.1,0.1c0.8,0.8,1.6,1.6,2.4,2.4c3.9,4,7.8,7.9,11.4,11.6l-0.4,0 c4.3-6.1,8.3-11.8,11.9-16.9l0.1-0.2l0.2,0.1c5.3,2.6,10.1,4.9,14.1,6.9l-0.2,0.1c1.5-5.1,2.6-9.3,3.4-12.1 c0.4-1.4,0.7-2.5,0.9-3.2c0.1-0.3,0.2-0.6,0.3-0.8C480.1,356.2,480.1,356.1,480.1,356.1z"></path> </g> </g> </g> <g> <g> <path class="st6" d="M470,286.3c-4,0.4-8.2-0.9-11.2-3.5c3.6,1.8,8.5-0.7,9.8-4.6c1.3-3.9,0.2-11.1-3-13.6 c-3-2.4-7.2-3.4-11-2.4c-3.8,1-7.7,6.7-9,10.4l0.1,0.1c-0.6-0.2-1.2-0.4-1.7-0.6c-4.2-1.4-8.6-2.1-12.9-1.6 c-4.4,0.5-8.6,2.2-11.8,5.2l25.4,40.9c4.6-0.4,8.7-3.5,11.1-7.5c2.4-4,3.3-8.7,3.6-13.3c0.1-1.2,0.1-2.3,0-3.5 c2.7,0.4,5.5,0.9,8.2,1.3c-1.5-2-3.3-3.6-5.4-4.9C464.9,289.8,468.4,288.7,470,286.3z"></path> </g> <g> <g> <g> <g> <g> <g> <g> <g> <g> <g> <g> <g> <g> <path class="st10" d="M437.9,349.7c6.9-0.1,12.4-5.7,12.5-12.6l0.6-50.8l0,0c0-2.1-1.5-3.9-3.6-4.1l-21.5-5.4 c-6.9-0.7-11.5,7.7-11.9,14.6c-0.5,7.7-0.8,17.1,0.1,22.8c1.8,11.5,10.6,13,10.6,13c0,0,0,4.5,0,9.9 C424.9,344.2,430.7,349.9,437.9,349.7L437.9,349.7z"></path> </g> </g> </g> </g> </g> <g> <g> <g> <g> <g> <g> <path class="st6" d="M418.5,298.8c0,0.8,0.6,1.4,1.4,1.5c0.8,0,1.5-0.6,1.5-1.3c0-0.8-0.6-1.4-1.4-1.5 C419.2,297.4,418.5,298,418.5,298.8z"></path> </g> </g> </g> </g> </g> <g> <g> <g> <g> <g> <g> <path class="st6" d="M416,296.2c0.2,0.2,1.3-0.6,2.9-0.6c1.6,0,2.8,0.8,2.9,0.6c0.1-0.1-0.1-0.4-0.6-0.8 c-0.5-0.4-1.4-0.7-2.3-0.7c-1,0-1.8,0.4-2.3,0.7C416.1,295.8,415.9,296.2,416,296.2z"></path> </g> </g> </g> </g> </g> </g> </g> <g> <g> <g> <g> <g> <g> <path class="st6" d="M433.6,298.8c0,0.8,0.6,1.4,1.4,1.5c0.8,0,1.5-0.6,1.5-1.3c0-0.8-0.6-1.4-1.4-1.5 C434.3,297.4,433.6,298,433.6,298.8z"></path> </g> </g> </g> </g> </g> <g> <g> <g> <g> <g> <g> <path class="st6" d="M431.6,296.5c0.2,0.2,1.3-0.6,2.9-0.6c1.6,0,2.8,0.8,2.9,0.6c0.1-0.1-0.1-0.4-0.6-0.8 c-0.5-0.4-1.4-0.7-2.3-0.7c-1,0-1.8,0.4-2.3,0.7C431.7,296.1,431.6,296.5,431.6,296.5z"></path> </g> </g> </g> </g> </g> </g> </g> <g> <g> <g> <g> <g> <g> <path class="st6" d="M425.9,308.3c0-0.1-1-0.3-2.6-0.5c-0.4,0-0.8-0.1-0.9-0.4c-0.1-0.3,0.1-0.7,0.3-1.2 c0.4-1,0.8-2,1.2-3.1c1.7-4.4,2.9-8,2.7-8.1c-0.2-0.1-1.7,3.4-3.3,7.8c-0.4,1.1-0.8,2.1-1.1,3.1 c-0.2,0.5-0.4,1-0.2,1.6c0.1,0.3,0.4,0.5,0.7,0.6c0.3,0.1,0.5,0.1,0.7,0.1C424.9,308.4,425.9,308.4,425.9,308.3z"></path> </g> </g> </g> </g> </g> </g> <g> <g> <g> <g> <g> <path class="st11" d="M424.8,327.1c0,0,7.7,0.5,15.4-4.1c0,0-3.7,7.9-15.3,6.8L424.8,327.1z"></path> </g> </g> </g> </g> </g> <g> <g> <g> <g> <g> <path class="st11" d="M426.6,312.1c0.6-0.8,1.6-1.2,2.6-1.1c0.7,0.1,1.4,0.4,1.8,1c0.4,0.6,0.5,1.4,0.1,1.9 c-0.4,0.6-1.3,0.7-2.1,0.5c-0.8-0.2-1.4-0.7-2-1.2c-0.2-0.1-0.3-0.3-0.5-0.5C426.4,312.6,426.4,312.4,426.6,312.1"></path> </g> </g> </g> </g> </g> <g> <g> <g> <g> <g> <g> <path class="st6" d="M430.6,309.4c-0.3,0-0.3,1.7-1.7,2.9c-1.5,1.2-3.3,1-3.3,1.3c0,0.1,0.4,0.3,1.2,0.4 c0.8,0,1.9-0.2,2.8-1c0.9-0.8,1.3-1.8,1.3-2.5C430.9,309.8,430.7,309.4,430.6,309.4z"></path> </g> </g> </g> </g> </g> </g> </g> </g> </g> <g> <g> <g> <g> <g> <path class="st6" d="M430.9,293.8c0.2,0.4,1.7,0.2,3.6,0.5c1.9,0.2,3.4,0.7,3.6,0.3c0.1-0.2-0.2-0.6-0.8-1 c-0.6-0.4-1.6-0.8-2.7-0.9c-1.1-0.1-2.1,0.1-2.8,0.3C431.2,293.2,430.9,293.6,430.9,293.8z"></path> </g> </g> </g> </g> </g> <g> <g> <g> <g> <g> <path class="st6" d="M416.3,293.3c0.3,0.4,1.4,0,2.7,0c1.3-0.1,2.4,0.2,2.7-0.1c0.1-0.2-0.1-0.5-0.6-0.9 c-0.5-0.3-1.3-0.6-2.2-0.6c-0.9,0-1.7,0.4-2.1,0.7C416.3,292.8,416.1,293.1,416.3,293.3z"></path> </g> </g> </g> </g> </g> </g> </g> <g> <g> <path class="st10" d="M449.7,300.6c0.9-0.6,2.1-0.4,3,0.2c2.1,1.2,3.2,4,2.4,6.3c-0.8,2.3-3.3,3.9-5.7,3.6"></path> </g> </g> <g> <g> <g> <path class="st11" d="M450.5,307.2c0-0.1,0.4,0.1,1-0.2c0.5-0.2,1-1,1-2c0-1-0.6-1.6-1.2-1.8c-0.6-0.2-1-0.1-1-0.2 c0-0.1,0.4-0.4,1.2-0.2c0.4,0.1,0.8,0.3,1.1,0.7c0.3,0.4,0.5,0.9,0.6,1.5c0.1,1.2-0.6,2.2-1.4,2.4 C450.9,307.6,450.5,307.2,450.5,307.2z"></path> </g> </g> </g> </g> </g> </g> <g> <g> <path class="st7" d="M453.7,309.5c0,0,0.2,0.1,0.5,0.4c0.4,0.3,0.9,0.7,1.4,1.2c1.3,1.1,3,2.5,5,4.2l0.2,0.1l-0.1,0.2 c-1.8,2.2-3.9,5-6.2,7.9c-0.5,0.7-1,1.3-1.6,1.9l-0.4,0.5l0-0.7c-0.2-4.7-0.4-8.8-0.5-11.8c0-1.4-0.1-2.6-0.1-3.5 c0-0.8,0-1.3,0-1.3c0,0,0.1,0.4,0.2,1.3c0.1,0.9,0.1,2.1,0.2,3.5c0.2,3,0.4,7.1,0.6,11.8l-0.5-0.2c0.5-0.6,1-1.2,1.5-1.9 c2.3-2.9,4.4-5.7,6.3-7.9l0,0.3c-2-1.8-3.6-3.2-4.8-4.4c-0.5-0.5-1-0.9-1.3-1.2C453.8,309.7,453.6,309.5,453.7,309.5z"></path> </g> </g> <g> <path class="st6" d="M430.4,271.7c-2.8,0.1-5.7,0.2-8.4,0.9c-2.7,0.7-5.4,2-7.3,4.1c-1.9,2.1-2.8,5.1-2,7.8 c0.8,2.7,3.6,4.8,6.4,4.4c2.1-0.3,4.2-1.9,6.2-1.2c1.9,0.6,3,2.9,5,3.3c2,0.4,3.7-1.4,5.7-1.6c2.2-0.2,4.1,1.6,5.1,3.6 c1,2,1.3,4.2,2.3,6.2c0.6,1.3,1.6,2.5,3,2.8c1.3,0.3,2.6-0.2,3.6-1c1-0.8,1.6-2,2.1-3.2c2.1-5.1,1.6-11.1-1.2-15.9 c-2.8-4.7-7.9-8-13.3-8.6"></path> </g> <g> <g> <path class="st8" d="M458.4,283.9c-0.1,0-0.4-0.9-1.1-2.3c-0.7-1.4-1.9-3.2-3.7-4.8c-1.8-1.6-3.7-2.6-5.2-3.2 c-1.5-0.6-2.4-0.7-2.4-0.8c0,0,0.3,0,0.7,0c0.4,0,1.1,0.2,1.9,0.4c1.5,0.5,3.6,1.5,5.4,3.2c1.8,1.7,3.1,3.6,3.7,5.1 c0.3,0.7,0.5,1.4,0.6,1.8C458.4,283.7,458.5,283.9,458.4,283.9z"></path> </g> </g> <g> <g> <path class="st7" d="M467.2,267.1c0,0.1-1-0.5-2.8-0.9c-1.7-0.3-4.3-0.2-6.7,1c-2.4,1.2-4.2,3.1-5.2,4.5 c-1.1,1.4-1.6,2.5-1.6,2.4c0,0,0.1-0.3,0.3-0.7c0.2-0.5,0.6-1.1,1.1-1.9c1-1.5,2.7-3.5,5.3-4.8c2.6-1.3,5.3-1.4,7.1-0.9 c0.9,0.2,1.6,0.5,2,0.8C467,266.8,467.2,267,467.2,267.1z"></path> </g> </g> <g> <g> <path class="st7" d="M456.2,280.6c0.1,0,0.2,0.9,0,2.4c-0.1,1.5-0.6,3.5-1.4,5.5c-0.9,2.1-2.1,3.7-3,4.8 c-1,1.1-1.7,1.7-1.7,1.6c-0.1-0.1,2.6-2.6,4.3-6.7C456,284.2,456,280.6,456.2,280.6z"></path> </g> </g> <g> <g> <path class="st7" d="M456.5,280.8c0,0,0.1,0.2,0.3,0.7c0.2,0.4,0.3,1.1,0.5,1.9c0.3,1.6,0.3,4-0.3,6.4 c-0.6,2.5-1.8,4.5-2.8,5.8c-0.5,0.7-1,1.1-1.3,1.5c-0.3,0.3-0.5,0.5-0.6,0.4c-0.1-0.1,0.6-0.8,1.6-2.1c0.9-1.3,2-3.3,2.6-5.7 c0.6-2.4,0.6-4.6,0.5-6.2C456.7,281.8,456.4,280.8,456.5,280.8z"></path> </g> </g> </g> </g> </g> <g id="Speech_Bubble"> <g> <g> <path class="st0" d="M486.8,283.4c-2.9,0.9-4.2,5.1-2.3,7.4c1.9,2.4,6.2,2.1,7.8-0.6c1.5-2.6-0.3-6.5-3.3-7"></path> </g> <g> <path class="st0" d="M500.3,263.8c-3.3,1.1-4.8,5.8-2.6,8.5c2.2,2.7,7.1,2.4,8.9-0.7c1.8-3-0.4-7.5-3.8-8.1"></path> </g> <g> <g> <path class="st2" d="M529.2,177.2c-9-0.8-18.2,1.3-24.4,7.9c-6.2,6.6-9.2,16.2-7.8,25.1c-9.6,4-14.9,16.2-11.1,26 c3.7,9.7,15.8,15.3,25.7,11.8c4.4,11.2,15,19.7,26.9,21.6c11.9,1.9,24.6-2.9,32.3-12.2c9.4,2.1,20,2,28-3.6 c7.9-5.5,11.5-17.7,5.5-25.3c10.9-2.6,16.4-16.2,13.2-26.9c-3.2-10.7-12.9-18.4-23.2-22.8c-6.8-2.9-15.3-4.4-21.1,0.2 c-4.7-7.2-12.9-11.9-21.4-12.2C543,166.5,534.4,170.5,529.2,177.2"></path> </g> <g> <g> <path class="st6" d="M529.2,177.2c0,0,0.2-0.2,0.5-0.7c0.4-0.5,0.9-1.1,1.8-1.9c1.6-1.6,4.3-3.8,8.4-5.6c2-0.9,4.4-1.6,7.1-2 c2.7-0.4,5.6-0.4,8.7,0.3c3.1,0.6,6.3,1.9,9.4,3.8c3,1.9,5.9,4.6,8.1,8l-0.3,0c2.3-1.8,5.4-2.9,8.6-2.9 c3.2-0.1,6.4,0.5,9.6,1.5c3.2,1.1,6.4,2.5,9.4,4.3c3.1,1.8,6.1,4,8.8,6.6c2.7,2.6,5.1,5.7,6.8,9.3c0.8,1.8,1.5,3.7,1.9,5.7 c0.4,2,0.6,4,0.4,6.1c-0.3,4.1-1.5,8.2-3.9,11.8c-1.2,1.7-2.6,3.4-4.4,4.7c-1.8,1.3-3.8,2.3-5.9,2.8l0.1-0.4 c1.3,1.7,2.2,3.6,2.7,5.7c0.5,2.1,0.5,4.3,0.2,6.4c-0.7,4.3-2.8,8.4-6,11.5c-3.2,3.2-7.5,5.1-11.9,6.1c-4.5,1-9.1,1-13.7,0.4 c-1.7-0.2-3.3-0.5-4.9-0.9l0.3-0.1c-8.3,10-21.9,14.4-33.8,12c-6-1.2-11.4-4-15.9-7.8c-4.4-3.8-7.9-8.5-9.9-13.7l0.3,0.1 c-5.7,2-11.9,1-16.8-1.8c-4.9-2.7-8.6-7.3-9.8-12.4c-1.2-5.1-0.2-10.4,2-14.7c2.3-4.3,5.8-7.6,9.9-9.3l-0.1,0.2 c-0.6-4.2-0.3-8.2,0.6-11.9c0.9-3.7,2.5-6.9,4.3-9.7c0.9-1.4,2-2.6,3-3.8c1.1-1.1,2.2-2.1,3.3-2.9c2.3-1.7,4.7-2.7,6.9-3.5 c4.4-1.4,8.1-1.6,10.5-1.6C527.9,177,529.2,177.2,529.2,177.2c0,0-0.3,0-0.9,0c-0.6,0-1.5-0.1-2.8-0.1c-2.4,0-6.1,0.2-10.4,1.7 c-2.2,0.7-4.6,1.8-6.8,3.5c-1.2,0.8-2.2,1.8-3.3,2.9c-1,1.1-2,2.3-2.9,3.7c-1.8,2.7-3.3,6-4.2,9.6c-0.9,3.6-1.2,7.6-0.6,11.7 l0,0.1l-0.1,0.1c-4,1.7-7.5,4.9-9.7,9.2c-2.2,4.2-3.2,9.4-2,14.4c1.2,5,4.8,9.5,9.6,12.2c4.8,2.7,10.9,3.6,16.4,1.7l0.2-0.1 l0.1,0.2c2,5.1,5.4,9.8,9.8,13.5c4.4,3.7,9.8,6.5,15.6,7.7c11.7,2.4,25.1-2,33.3-11.8l0.1-0.1l0.2,0c1.6,0.3,3.2,0.7,4.9,0.9 c4.5,0.6,9.1,0.6,13.5-0.4c4.4-1,8.5-2.9,11.7-5.9c3.1-3.1,5.2-7.1,5.8-11.2c0.7-4.2-0.2-8.5-2.7-11.7l-0.2-0.3l0.4-0.1 c2.1-0.5,4-1.5,5.7-2.7c1.7-1.2,3.1-2.9,4.3-4.6c2.3-3.5,3.6-7.5,3.8-11.5c0.2-2,0-4-0.4-6c-0.4-1.9-1.1-3.8-1.9-5.6 c-1.7-3.5-4-6.6-6.7-9.2c-2.6-2.6-5.6-4.8-8.7-6.6c-3-1.8-6.2-3.3-9.4-4.3c-3.2-1.1-6.4-1.6-9.5-1.5c-3.1,0.1-6.1,1.1-8.4,2.8 l-0.2,0.1l-0.1-0.2c-2.2-3.3-5-5.9-8-7.9c-3-1.9-6.2-3.2-9.2-3.8c-3.1-0.7-6-0.6-8.7-0.3c-2.7,0.4-5,1.1-7,1.9 c-4,1.7-6.7,3.9-8.4,5.5c-0.8,0.8-1.4,1.4-1.8,1.9C529.4,177,529.2,177.2,529.2,177.2z"></path> </g> </g> </g> <g> <g> <path class="st7" d="M591,208.4c0,0.4-17.7,0.8-39.6,0.8c-21.9,0-39.6-0.3-39.6-0.8c0-0.4,17.7-0.8,39.6-0.8 C573.3,207.6,591,207.9,591,208.4z"></path> </g> </g> <g> <g> <path class="st7" d="M591,217c0,0.4-17.7,0.8-39.6,0.8c-21.9,0-39.6-0.3-39.6-0.8c0-0.4,17.7-0.8,39.6-0.8 C573.3,216.2,591,216.5,591,217z"></path> </g> </g> <g> <g> <path class="st7" d="M591,225.5c0,0.4-17.7,0.8-39.6,0.8c-21.9,0-39.6-0.3-39.6-0.8c0-0.4,17.7-0.8,39.6-0.8 C573.3,224.8,591,225.1,591,225.5z"></path> </g> </g> <g> <g> <path class="st7" d="M591,234.1c0,0.4-17.7,0.8-39.6,0.8c-21.9,0-39.6-0.3-39.6-0.8c0-0.4,17.7-0.8,39.6-0.8 C573.3,233.4,591,233.7,591,234.1z"></path> </g> </g> </g> </g> </svg> 